<svg id="mermaidChart0" width="1200" height="1447.0904207699195" viewBox="-50 -10 750 898" style="width: 1192; height: 1447.0904207699195;" version="1.1" xmlns="http://www.w3.org/2000/svg" xmlns:xlink="http://www.w3.org/1999/xlink"><style type="text/css" title="mermaid-svg-internal-css">/*  */
.actor { stroke: #ccccff; fill: #ececff;}
text.actor { fill: #000000; stroke: none;}
.actor-line { stroke: #808080;}
.messageline0 { stroke-width: 1.5px; stroke: #333333;}
#arrowhead { fill: #333333;}
#crosshead path { fill: #333333 !important; stroke: #333333 !important;}
.messagetext { fill: #333333; stroke: none;}
.note { stroke: #aaaa33; fill: #fff5ad;}
.notetext { fill: #000000; stroke: none; font-family: 'trebuchet ms', verdana, arial; font-size: 14px;}
/*  */
</style><g/><g><line id="actor0" x1="75" y1="5" x2="75" y2="887" class="actor-line" stroke-width="0.5px" stroke="#999"/><rect x="0" y="0" fill="#eaeaea" stroke="#666" width="150" height="65" rx="3" ry="3" class="actor"/><text x="75" y="37.5" class="actor" style="text-anchor: middle;">Server</text></g><g><line id="actor1" x1="275" y1="5" x2="275" y2="887" class="actor-line" stroke-width="0.5px" stroke="#999"/><rect x="200" y="0" fill="#eaeaea" stroke="#666" width="150" height="65" rx="3" ry="3" class="actor"/><text x="275" y="37.5" class="actor" style="text-anchor: middle;">Client</text></g><g><line id="actor2" x1="475" y1="5" x2="475" y2="887" class="actor-line" stroke-width="0.5px" stroke="#999"/><rect x="400" y="0" fill="#eaeaea" stroke="#666" width="150" height="65" rx="3" ry="3" class="actor"/><text x="475" y="37.5" class="actor" style="text-anchor: middle;">SLM</text></g><defs><marker id="arrowhead" refX="5" refY="2" markerWidth="6" markerHeight="4" orient="auto"><path d="M 0,0 V 4 L6,2 Z"/></marker></defs><defs><marker id="crosshead" markerWidth="15" markerHeight="8" orient="auto" refX="16" refY="4"><path fill="black" stroke="#000000" stroke-width="1px" d="M 9,2 V 6 L16,4 Z" style="stroke-dasharray: 0px, 0px;"/><path fill="none" stroke="#000000" stroke-width="1px" d="M 0,1 L 6,7 M 6,1 L 0,7" style="stroke-dasharray: 0px, 0px;"/></marker></defs><g><text x="175" y="93" class="messageText" style="text-anchor: middle;">Check for updates</text><line x1="275" y1="100" x2="75" y2="100" class="messageLine0" stroke-width="2" stroke="black" marker-end="url(#arrowhead)" style="fill: none;"/></g><g><rect x="50" y="110" fill="#EDF2AE" stroke="#666" width="250" height="52" rx="0" ry="0" class="note"/><text x="66" y="133" fill="black" class="noteText"><tspan x="66">GET</tspan><tspan dy="16" x="66">/mydevice/{uuid}/updates</tspan></text></g><g><text x="175" y="190" class="messageText" style="text-anchor: middle;">200 OK</text><line x1="75" y1="197" x2="275" y2="197" class="messageLine0" stroke-width="2" stroke="black" marker-end="url(#arrowhead)" style="fill: none;"/></g><g><rect x="50" y="207" fill="#EDF2AE" stroke="#666" width="250" height="36" rx="0" ry="0" class="note"/><text x="66" y="230" fill="black" class="noteText"><tspan x="66">List of UpdateIDs in body</tspan></text></g><g><text x="375" y="271" class="messageText" style="text-anchor: middle;">UpdateAvailable(UpdateID)</text><line x1="275" y1="278" x2="475" y2="278" class="messageLine0" stroke-width="2" stroke="black" marker-end="url(#arrowhead)" style="fill: none;"/></g><g><rect x="470" y="280" fill="#f4f4f4" stroke="#666" width="10" height="144" rx="0" ry="0"/></g><g><text x="480" y="306" class="messageText" style="text-anchor: middle;"/><path d="M 480,313 C 540,303 540,343 480,333" class="messageLine0" stroke-width="2" stroke="black" marker-end="url(#arrowhead)" style="fill: none;"/></g><g><rect x="500" y="353" fill="#EDF2AE" stroke="#666" width="150" height="36" rx="0" ry="0" class="note"/><text x="516" y="376" fill="black" class="noteText"><tspan x="516">User prompt</tspan></text></g><g><text x="372.5" y="417" class="messageText" style="text-anchor: middle;">StartDownload(UpdateID)</text><line x1="470" y1="424" x2="275" y2="424" class="messageLine0" stroke-width="2" stroke="black" marker-end="url(#arrowhead)" style="fill: none;"/></g><g><text x="175" y="452" class="messageText" style="text-anchor: middle;">GET /mydevice/{uuid}/updates/{UpdateID}/download</text><line x1="275" y1="459" x2="75" y2="459" class="messageLine0" stroke-width="2" stroke="black" marker-end="url(#arrowhead)" style="fill: none;"/></g><g><text x="175" y="487" class="messageText" style="text-anchor: middle;">200 OK</text><line x1="75" y1="494" x2="275" y2="494" class="messageLine0" stroke-width="2" stroke="black" marker-end="url(#arrowhead)" style="fill: none;"/></g><g><rect x="50" y="504" fill="#EDF2AE" stroke="#666" width="250" height="36" rx="0" ry="0" class="note"/><text x="66" y="527" fill="black" class="noteText"><tspan x="66">Update binary in body</tspan></text></g><g><text x="375" y="568" class="messageText" style="text-anchor: middle;">DownloadComplete(UpdateID)</text><line x1="275" y1="575" x2="475" y2="575" class="messageLine0" stroke-width="2" stroke="black" marker-end="url(#arrowhead)" style="fill: none;"/></g><g><rect x="470" y="577" fill="#f4f4f4" stroke="#666" width="10" height="144" rx="0" ry="0"/></g><g><text x="480" y="603" class="messageText" style="text-anchor: middle;"/><path d="M 480,610 C 540,600 540,640 480,630" class="messageLine0" stroke-width="2" stroke="black" marker-end="url(#arrowhead)" style="fill: none;"/></g><g><rect x="500" y="650" fill="#EDF2AE" stroke="#666" width="150" height="36" rx="0" ry="0" class="note"/><text x="516" y="673" fill="black" class="noteText"><tspan x="516">install update</tspan></text></g><g><text x="372.5" y="714" class="messageText" style="text-anchor: middle;">SendUpdateReport(UpdateReport)</text><line x1="470" y1="721" x2="275" y2="721" class="messageLine0" stroke-width="2" stroke="black" marker-end="url(#arrowhead)" style="fill: none;"/></g><g><text x="175" y="749" class="messageText" style="text-anchor: middle;">POST /updates/{UpdateId}</text><line x1="275" y1="756" x2="75" y2="756" class="messageLine0" stroke-width="2" stroke="black" marker-end="url(#arrowhead)" style="fill: none;"/></g><g><rect x="50" y="766" fill="#EDF2AE" stroke="#666" width="250" height="36" rx="0" ry="0" class="note"/><text x="66" y="789" fill="black" class="noteText"><tspan x="66">UpdateReport in body</tspan></text></g><g><rect x="0" y="822" fill="#eaeaea" stroke="#666" width="150" height="65" rx="3" ry="3" class="actor"/><text x="75" y="859.5" class="actor" style="text-anchor: middle;">Server</text></g><g><rect x="200" y="822" fill="#eaeaea" stroke="#666" width="150" height="65" rx="3" ry="3" class="actor"/><text x="275" y="859.5" class="actor" style="text-anchor: middle;">Client</text></g><g><rect x="400" y="822" fill="#eaeaea" stroke="#666" width="150" height="65" rx="3" ry="3" class="actor"/><text x="475" y="859.5" class="actor" style="text-anchor: middle;">SLM</text></g></svg>